<?xml version="1.0" encoding="UTF-8"?>
<svg width="18px" height="21px" viewBox="0 0 18 21" version="1.1" xmlns="http://www.w3.org/2000/svg" xmlns:xlink="http://www.w3.org/1999/xlink">
    <!-- Generator: Sketch 54.1 (76490) - https://sketchapp.com -->
    <title>calendar-alt</title>
    <desc>Created with Sketch.</desc>
    <g id="Basic-Wizards" stroke="none" stroke-width="1" fill="none" fill-rule="evenodd">
        <g id="pat-setting" transform="translate(-585.000000, -625.000000)" fill="#008DF4" fill-rule="nonzero">
            <g id="Group-3" transform="translate(220.000000, 488.000000)">
                <g id="Group-4-Copy-6" transform="translate(33.000000, 88.000000)">
                    <g id="Group-5-Copy-2" transform="translate(0.000000, 38.000000)">
                        <g id="calendar-alt" transform="translate(332.000000, 11.000000)">
                            <path d="M17.5178571,6.5625 L0.482142857,6.5625 C0.216964286,6.5625 0,6.34101563 0,6.0703125 L0,4.59375 C0,3.50683594 0.863839286,2.625 1.92857143,2.625 L3.85714286,2.625 L3.85714286,0.4921875 C3.85714286,0.221484375 4.07410714,0 4.33928571,0 L5.94642857,0 C6.21160714,0 6.42857143,0.221484375 6.42857143,0.4921875 L6.42857143,2.625 L11.5714286,2.625 L11.5714286,0.4921875 C11.5714286,0.221484375 11.7883929,0 12.0535714,0 L13.6607143,0 C13.9258929,0 14.1428571,0.221484375 14.1428571,0.4921875 L14.1428571,2.625 L16.0714286,2.625 C17.1361607,2.625 18,3.50683594 18,4.59375 L18,6.0703125 C18,6.34101563 17.7830357,6.5625 17.5178571,6.5625 Z M0.482142857,7.875 L17.5178571,7.875 C17.7830357,7.875 18,8.09648438 18,8.3671875 L18,19.03125 C18,20.1181641 17.1361607,21 16.0714286,21 L1.92857143,21 C0.863839286,21 0,20.1181641 0,19.03125 L0,8.3671875 C0,8.09648438 0.216964286,7.875 0.482142857,7.875 Z M5.14285714,16.2421875 C5.14285714,15.9714844 4.92589286,15.75 4.66071429,15.75 L3.05357143,15.75 C2.78839286,15.75 2.57142857,15.9714844 2.57142857,16.2421875 L2.57142857,17.8828125 C2.57142857,18.1535156 2.78839286,18.375 3.05357143,18.375 L4.66071429,18.375 C4.92589286,18.375 5.14285714,18.1535156 5.14285714,17.8828125 L5.14285714,16.2421875 Z M5.14285714,10.9921875 C5.14285714,10.7214844 4.92589286,10.5 4.66071429,10.5 L3.05357143,10.5 C2.78839286,10.5 2.57142857,10.7214844 2.57142857,10.9921875 L2.57142857,12.6328125 C2.57142857,12.9035156 2.78839286,13.125 3.05357143,13.125 L4.66071429,13.125 C4.92589286,13.125 5.14285714,12.9035156 5.14285714,12.6328125 L5.14285714,10.9921875 Z M10.2857143,16.2421875 C10.2857143,15.9714844 10.06875,15.75 9.80357143,15.75 L8.19642857,15.75 C7.93125,15.75 7.71428571,15.9714844 7.71428571,16.2421875 L7.71428571,17.8828125 C7.71428571,18.1535156 7.93125,18.375 8.19642857,18.375 L9.80357143,18.375 C10.06875,18.375 10.2857143,18.1535156 10.2857143,17.8828125 L10.2857143,16.2421875 Z M10.2857143,10.9921875 C10.2857143,10.7214844 10.06875,10.5 9.80357143,10.5 L8.19642857,10.5 C7.93125,10.5 7.71428571,10.7214844 7.71428571,10.9921875 L7.71428571,12.6328125 C7.71428571,12.9035156 7.93125,13.125 8.19642857,13.125 L9.80357143,13.125 C10.06875,13.125 10.2857143,12.9035156 10.2857143,12.6328125 L10.2857143,10.9921875 Z M15.4285714,16.2421875 C15.4285714,15.9714844 15.2116071,15.75 14.9464286,15.75 L13.3392857,15.75 C13.0741071,15.75 12.8571429,15.9714844 12.8571429,16.2421875 L12.8571429,17.8828125 C12.8571429,18.1535156 13.0741071,18.375 13.3392857,18.375 L14.9464286,18.375 C15.2116071,18.375 15.4285714,18.1535156 15.4285714,17.8828125 L15.4285714,16.2421875 Z M15.4285714,10.9921875 C15.4285714,10.7214844 15.2116071,10.5 14.9464286,10.5 L13.3392857,10.5 C13.0741071,10.5 12.8571429,10.7214844 12.8571429,10.9921875 L12.8571429,12.6328125 C12.8571429,12.9035156 13.0741071,13.125 13.3392857,13.125 L14.9464286,13.125 C15.2116071,13.125 15.4285714,12.9035156 15.4285714,12.6328125 L15.4285714,10.9921875 Z" id="Shape"></path>
                        </g>
                    </g>
                </g>
            </g>
        </g>
    </g>
</svg>