<svg height="68" viewBox="0 0 218 68" width="218" xmlns="http://www.w3.org/2000/svg"><g fill="none" fill-rule="evenodd" transform="translate(-12 -13)"><ellipse cx="48.875" cy="47" fill="#008df4" rx="37.467103" ry="31.858579" transform="matrix(.8660254 -.5 .5 .8660254 -16.951992 30.734306)"/><g fill-rule="nonzero"><path d="m39.4166924 0c-16.942255 0-30.8776961 13.1192118-32.35438346 29.7915976 4.39782106-7.6348847 10.45204956-9.7336189 9.79030986-9.0356923-.3783713.3976019-.748383.7935524-1.1116758 1.1827399-.0666427.0721125-.1333636.1443037-.2000063.2180677-5.3201684 5.7341651-12.77337971 13.7143574-15.53518588 19.9132827-.09403131.2110436.97235715-.797946 2.66328788-3.1144072 1.69637436-2.3239186 4.44631055-5.465618 5.94896214-6.6408466 11.64036846-.3003247 22.20334136-5.6083337 27.75687646-15.9794841.1383638-.2600612.1316448-.5737546-.0183599-.8287829-.1516454-.2516468-.4233728-.4076678-.7166633-.4076678l-1.2891503-.5032936 3.7375872-2.6809032c.1750055-.1006588.3100098-.2633641.3750118-.4546157 1.1866782-3.4727256 1.7866972-7.04610992 1.7866972-10.62114568 0-.46303008-.3732931-.83884882-.8333076-.83884882z" fill="#fff" transform="translate(28.75 26.677156)"/><g fill="#008df4"><path d="m99.1875 19.316357c0-.4105645.1288925-.7380337.3866812-.9824174.2577888-.2443836.6444658-.3665736 1.1600438-.3665736h22.462664c1.617038 0 3.140313.1857288 4.569869.5571919 1.429556.3714632 2.741915.8846612 3.937118 1.5396094 1.195202.6549482 2.273212 1.4369642 3.234061 2.3460715.960849.9091072 1.775215 1.8915148 2.443122 2.9472522s1.177618 2.1652226 1.529148 3.3284888c.351531 1.1632663.527293 2.3411779.527293 3.5337701 0 1.7595624-.380819 3.4799976-1.142467 5.1613572-.761649 1.6813596-1.845517 3.1769652-3.251638 4.4868616-1.40612 1.3098965-3.09344 2.3705057-5.062009 3.1818594-1.968568.8113538-4.148023 1.2267998-6.538427 1.2463505h-10.651311v13.959125c0 .8406798-.539004 1.2610134-1.61703 1.2610134h-10.440393c-.468707 0-.8436668-.1026396-1.1248909-.3079219-.2812242-.2052822-.4218341-.5229762-.4218341-.9530915zm27.3125 13.167326c0-.5215469-.123718-1.0430861-.371158-1.564633s-.606811-.986586-1.078125-1.3951311-1.042773-.7431993-1.714395-1.0039728c-.671622-.2607734-1.431605-.3911582-2.27997-.3911582h-7.493852v8.7097902h7.493852c.848365 0 1.614239-.1260386 2.297644-.3781196.683405-.2520811 1.254864-.578043 1.714395-.9778957.459531-.3998526.813011-.8605455 1.060451-1.3820924s.371158-1.0604707.371158-1.6167874zm30.90405-13.3726072c.023687-.1173042.100669-.2443818.230949-.3812366.130279-.1368549.290165-.2639325.479663-.3812366.189497-.1173042.390835-.2101686.60402-.278596s.414523-.1026406.604021-.1026406h9.095837c.402682 0 .746142.1026396 1.030388.3079218.284246.2052823.497428.3861235.639551.5425291l.888265 1.6715759 18.653573 39.707259c.189498.3910139.153967.7087079-.106592.9530916-.260559.2443836-.710609.3665736-1.350163.3665736h-10.197287c-.544805 0-.965246-.0830892-1.261336-.2492701s-.527037-.4447741-.692847-.8357879c-.473744-.9970854-.935638-1.9892682-1.385694-2.9765782-.450057-.98731-.900107-1.9794927-1.350164-2.9765781h-18.866756c-.450057.9970854-.906029 1.9892681-1.367929 2.9765781s-.917872 1.9794928-1.367928 2.9765782c-.307934.7233756-.911948 1.085058-1.812062 1.085058h-10.481531c-.450057 0-.823125-.097752-1.119215-.2932589-.296089-.1955069-.349385-.4887629-.159887-.8797768zm5.768588 14.8242389c-.415175.9719946-.835808 2.0202083-1.261909 3.1446726-.426102 1.1244643-.846734 2.258441-1.26191 3.401964s-.835808 2.2727351-1.261909 3.3876701c-.426102 1.1149349-.846734 2.158384-1.26191 3.1303786h10.0625zm20.827362-14.6776094c0-.3910139.164004-.7038203.492016-.9384286s.734985-.3519107 1.220929-.3519107h42.537664c.43735 0 .8261.1075272 1.166261.3225848s.534536.5376392.58313.9677545v7.3021473c0 .3519125-.151855.6891569-.45557 1.0117433-.303716.3225864-.734985.4838772-1.293821.4838772h-12.573744v32.0825269c0 .3519125-.15793.6696065-.473793.9530916-.315864.283485-.728911.4252254-1.239152.4252254h-10.715017c-.413053 0-.801802-.1319652-1.16626-.3958995-.364459-.2639344-.546685-.5914036-.546685-.9824175v-32.0825269h-12.537299c-.485944 0-.892916-.1270776-1.220929-.3812366-.218675-.1694393-1.477918-2.9749497-3.77773-8.4165312z"/><path d="m101.68277 72.7026703v3.3299637h-1.8003847v-9.2881747h3.1964717c.918096 0 1.642454.2743046 2.173096.8229221.530642.5486174.79596 1.2673381.79596 2.1561834 0 .8930982-.26637 1.612882-.799118 2.159373-.532748.5464911-1.256054.8197325-2.169938.8197325zm0-1.4544669h1.396087c.383242 0 .675933-.1424683.878083-.4274092.202149-.2849408.303222-.6464275.303222-1.0844709 0-.4422963-.10002-.8090989-.300064-1.1004191-.200043-.2913201-.493787-.436978-.881241-.436978h-1.396087zm9.652588 2.8132452h-2.425782l-.492736 1.9711854h-1.813019l2.590027-9.2881747h1.869873l2.583709 9.2881747h-1.813018zm-2.059388-1.4608462h1.692994l-.827546-3.285309h-.037902zm6.885682.1020679v3.3299637h-1.800385v-9.2881747h3.196472c.918096 0 1.642454.2743046 2.173096.8229221.530642.5486174.795959 1.2673381.795959 2.1561834 0 .8930982-.26637 1.612882-.799118 2.159373-.532748.5464911-1.256053.8197325-2.169937.8197325zm0-1.4544669h1.396087c.383242 0 .675933-.1424683.878083-.4274092.202149-.2849408.303222-.6464275.303222-1.0844709 0-.4422963-.10002-.8090989-.300064-1.1004191-.200044-.2913201-.493788-.436978-.881241-.436978h-1.396087zm10.404327.7080957h-3.089081v2.6282473h3.632355v1.4480876h-5.432739v-9.2881747h5.420105v1.4544669h-3.619721v2.3092852h3.089081zm3.278595.3827545v3.6935804h-1.794067v-9.2817954h3.00064c.905462 0 1.616133.2413455 2.132035.7240438s.773849 1.1535751.773849 2.0126505c0 .4848247-.10739.9026608-.322174 1.2535208s-.528532.6304806-.941253.8388702c.471682.1616082.811751.4295337 1.020217.8037844.208467.3742506.312699.8420569.312699 1.4034329v.6570619c0 .2551709.029479.5284123.08844.8197324.05896.2913201.162139.5028962.30954.6347345v.133964h-1.857239c-.147401-.1360911-.240051-.3572359-.277954-.663441s-.056855-.6187848-.056855-.9377484v-.6315449c0-.4635605-.093703-.8229208-.281112-1.0780917-.18741-.2551709-.455885-.3827544-.805435-.3827544zm0-1.4480877h1.200256c.366396 0 .644348-.1126988.833863-.3380998s.284271-.5464862.284271-.9632654c0-.4252848-.094756-.7633812-.284271-1.0142993-.189515-.250918-.465361-.3763752-.827546-.3763752h-1.206573zm12.514252 3.1704827h-2.425782l-.492736 1.9711854h-1.813019l2.590027-9.2881747h1.869873l2.583709 9.2881747h-1.813018zm-2.059388-1.4608462h1.692994l-.827546-3.285309h-.037902zm11.225556-5.8561431v6.3218277c0 .9909137-.287427 1.7553518-.86229 2.2933371-.574862.5379854-1.327647.806974-2.258377.806974-.930729 0-1.683514-.2700518-2.258377-.8101636-.574862-.5401118-.862289-1.3034866-.862289-2.2901475v-6.3218277h1.794067v6.3218277c0 .5656289.115813.9824018.347443 1.2503312.231629.2679295.558012.4018922.979156.4018922.433779 0 .764373-.1275835.991791-.3827544.227418-.255171.341126-.678323.341126-1.269469v-6.3218277zm6.702484 1.4544669h-2.072021v7.8337078h-1.794068v-7.8337078h-2.059387v-1.4544669h5.925476zm7.315247 7.8337078h-1.794068v-3.8466822h-2.855346v3.8466822h-1.800385v-9.2881747h1.800385v3.9934048h2.855346v-3.9934048h1.794068zm7.586883-3.3363429c0 1.0887292-.292691 1.9392861-.878082 2.5516963s-1.364497.9186107-2.337341.9186107c-.972845 0-1.749845-.3062005-2.331025-.9186107-.581179-.6124102-.871765-1.4629671-.871765-2.5516963v-2.6027303c0-1.0844764.290586-1.9360965.871765-2.554886.58118-.6187895 1.356075-.9281795 2.324707-.9281795.968633 0 1.747739.30939 2.337342.9281795.589602.6187895.884399 1.4704096.884399 2.554886zm-1.78775-2.6154888c0-.6634444-.12213-1.1642098-.366394-1.5023112-.244264-.3381015-.600126-.5071497-1.067597-.5071497-.471682 0-.825438.167985-1.061279.50396-.235841.3359751-.35376.8378037-.35376 1.5055009v2.6154888c0 .67195.120025 1.175905.360077 1.51188.240053.3359751.593809.5039601 1.06128.5039601.463259 0 .817015-.167985 1.061279-.5039601.244264-.335975.366394-.83993.366394-1.51188zm4.756805 2.2582513v3.6935804h-1.794067v-9.2817954h3.000641c.905461 0 1.616132.2413455 2.132034.7240438s.77385 1.1535751.77385 2.0126505c0 .4848247-.107391.9026608-.322174 1.2535208-.214784.35086-.528532.6304806-.941254.8388702.471682.1616082.811751.4295337 1.020218.8037844.208466.3742506.312698.8420569.312698 1.4034329v.6570619c0 .2551709.02948.5284123.08844.8197324s.162139.5028962.30954.6347345v.133964h-1.857239c-.147401-.1360911-.240051-.3572359-.277954-.663441s-.056854-.6187848-.056854-.9377484v-.6315449c0-.4635605-.093704-.8229208-.281113-1.0780917s-.455885-.3827544-.805435-.3827544zm0-1.4480877h1.200257c.366396 0 .644347-.1126988.833862-.3380998s.284271-.5464862.284271-.9632654c0-.4252848-.094756-.7633812-.284271-1.0142993-.189515-.250918-.465361-.3763752-.827545-.3763752h-1.206574zm7.422638 5.1416681h-1.78775v-9.2881747h1.78775zm7.928009 0h-1.78775l-2.811127-5.9390732-.037902.0127585v5.9263147h-1.800385v-9.2881747h1.800385l2.811126 5.932694.037903-.0127585v-5.9199355h1.78775zm7.492127-1.377916c-.248476.3997678-.621183.7516857-1.118134 1.0557644-.496951.3040786-1.126552.4561157-1.888824.4561157-.985479 0-1.776166-.2913158-2.372086-.873956-.59592-.5826403-.893875-1.4119333-.893875-2.487904v-2.8323829c0-1.067465.287427-1.8946316.862289-2.4815247.574863-.5868931 1.336071-.8803352 2.283646-.8803352 1.01917 0 1.783536.2519775 2.293121.75594.509586.5039626.774903 1.2258728.79596 2.1657523l-.012634.0382754h-1.686676c-.012635-.5231003-.127395-.9047878-.344284-1.1450737-.21689-.240286-.548536-.3604271-.99495-.3604271-.43799 0-.781218.1562898-1.029693.4688742-.248476.3125843-.372712.787833-.372712 1.4257603v2.8451414c0 .6506859.125289 1.1323137.37587 1.4448981s.615919.4688742 1.096024.4688742c.357973 0 .622237-.048907.792801-.1467225.170563-.0978155.310592-.2424102.420089-.4337884v-1.6649819h-1.21289v-1.2758482h3.006958zm9.608368-6.4557918h-2.072022v7.8337078h-1.794067v-7.8337078h-2.059387v-1.4544669h5.925476zm7.062561 4.4973649c0 1.0887292-.292691 1.9392861-.878083 2.5516963-.585391.6124102-1.364497.9186107-2.337341.9186107s-1.749844-.3062005-2.331024-.9186107-.871765-1.4629671-.871765-2.5516963v-2.6027303c0-1.0844764.290585-1.9360965.871765-2.554886s1.356074-.9281795 2.324707-.9281795 1.747739.30939 2.337341.9281795c.589603.6187895.8844 1.4704096.8844 2.554886zm-1.787751-2.6154888c0-.6634444-.12213-1.1642098-.366394-1.5023112-.244263-.3381015-.600125-.5071497-1.067596-.5071497-.471682 0-.825438.167985-1.061279.50396-.235841.3359751-.35376.8378037-.35376 1.5055009v2.6154888c0 .67195.120024 1.175905.360077 1.51188.240052.3359751.593809.5039601 1.061279.5039601.463259 0 .817016-.167985 1.061279-.5039601.244264-.335975.366394-.83993.366394-1.51188zm9.153534 2.6154888c0 1.0887292-.292691 1.9392861-.878082 2.5516963s-1.364497.9186107-2.337341.9186107-1.749845-.3062005-2.331024-.9186107c-.58118-.6124102-.871765-1.4629671-.871765-2.5516963v-2.6027303c0-1.0844764.290585-1.9360965.871765-2.554886.581179-.6187895 1.356074-.9281795 2.324707-.9281795.968632 0 1.747738.30939 2.337341.9281795s.884399 1.4704096.884399 2.554886zm-1.78775-2.6154888c0-.6634444-.12213-1.1642098-.366394-1.5023112-.244264-.3381015-.600126-.5071497-1.067596-.5071497-.471682 0-.825439.167985-1.06128.50396-.235841.3359751-.353759.8378037-.353759 1.5055009v2.6154888c0 .67195.120024 1.175905.360077 1.51188.240052.3359751.593808.5039601 1.061279.5039601.463259 0 .817015-.167985 1.061279-.5039601.244264-.335975.366394-.83993.366394-1.51188zm4.756806 4.5037441h3.360717v1.4480876h-5.161102v-9.2881747h1.800385z"/></g></g></g></svg>