<?xml version="1.0" encoding="UTF-8"?>
<svg height="191" viewBox="0 0 206 191" width="206" xmlns="http://www.w3.org/2000/svg"><g fill="none" fill-rule="evenodd"><path d="m148.201405 174.37856c-51.100633 29.724329-112.7632387 18.505525-137.7272852-25.057901-24.9640464-43.563426-3.77615699-102.9748895 47.3244756-132.6992187 51.1006326-29.7243293 112.7632386-18.50552504 137.7272846 25.0579006 24.964047 43.5634256 3.776157 102.9748901-47.324475 132.6992191z" fill="#00cef4"/><g transform="matrix(-1 0 0 1 143.720931 69.672956)"><g fill="#fff"><path d="m13.8759775 68.7453555-13.81407951-38.5867697c-.19841278-.5619142.09613181-1.1843645.65550005-1.3896516 18.16214786-6.5619808 38.62776966-12.6649998 56.12232416-20.16364163.7817627-.495407 1.3952435-.00597124 1.7320123.9304839l21.7044718 56.20048603 5.8937613 16.4655909c.1984128.5619143-.0901876 1.1903358-.6495559 1.3898576l-41.5324261 15.0032549-16.1897035 5.8491381c-.5593682.205493-1.1787932-.090598-1.3831502-.652512z"/><path d="m26.047163 56.2782417-6.8683738-40.2067336c-.1018429-.5891787.2934871-1.1482429.8743385-1.2504683l47.3008143-8.13992555 10.8326947-1.79150473c.592893-.25853391 1.5570328.04199639 1.7843935 1.37072134l11.7009103 58.65093554 2.92834 17.1576782c.1018429.5832377-.2934871 1.1482429-.8743384 1.2504683l-43.3128186 7.4546673-16.8867335 2.9096331c-.5808514.0962844-1.1437426-.3005303-1.2455854-.883768z"/><path d="m39.5234596 44.0091718v38.940342c0 .6238528.5024172 1.1385365 1.1183624 1.1385365h17.8507916 26.4265335 3.7973773 15.5604616c.615946 0 1.118363-.5146837 1.118363-1.1385365v-18.2952104-50.5376478-.5268594h-11.3623742c-1.0943115 0-3.3669086.1574593-3.3669086-2.3556995l-.0240508-11.2340967h-50.0003972c-.6159452 0-1.1183624.50869902-1.1183624 1.1325518v9.719969 4.1121041 29.0445469z"/></g><path d="m19.7742825 22.8238994c-6.4797655 2.1597097-12.89905544 4.301226-19.05188114 6.4907813-.56326942.2040123-.85986823.8217731-.66007168 1.3796385l13.91042232 38.3089381 12.6266055 34.7935067c.2059886.557866.8297337.851823 1.3927967.647811l16.3026145-5.8069925 37.1470918-13.2274813z" fill="#b5c4cf"/><path d="m39.31939 10.8113208-19.265369 3.3405028c-.5814342.103093-.9771608.6669023-.8752157 1.2610817l1.1389653 6.7235652 5.7365037 33.8244251 6.2398957 36.8314769c.1019451.588188.665401.9881641 1.2468351.8912691l16.9036759-2.9343288 30.9122346-5.3595971 7.2709914-1.2610817h-3.8062894z" fill="#d7e7ec"/><path d="m105.395349 64.6543034v-50.5376478-.5268594-.1756199c0-.3270945-.137579-.3815758-.633883-.8721144l-12.2653367-11.84556731c-.5800745-.55719567-.6756666-.69649459-1.0166591-.69649459h-.8372967-50.0005519c-.615947 0-1.1183658.50869902-1.1183658 1.1325518v81.816962c0 .6238528.5024188 1.1385365 1.1183658 1.1385365h63.6353614c.615947 0 1.118366-.5146837 1.118366-1.1385365z" fill="#edf3f4"/><path d="m39.2522734 10.8113208-4.5197153.7758628v74.9740447c0 .6254446.5042819 1.1305956 1.1225129 1.1305956h17.9170408 10.6602925l16.9146144-2.9046697 7.2808883-1.2508892h-3.8114704-4.6878774-21.8367322-17.9170407c-.6182311 0-1.1225129-.511094-1.1225129-1.1305956 0-23.8630068 0-47.7317517 0-71.5943486z" fill="#b5c4cf"/><path d="m24.8238589 56.4449353-5.7783208-33.6210359c-1.5637829.5242762-3.1215979 1.0485524-4.6734451 1.5728287l.7186117 4.1763438 5.7783208 33.6210359 6.291556 36.6100059c.0965146.5844458.6640778.9822222 1.2497504.8859098l17.0268978-2.9166844 8.0788247-1.3799985 24.3327828-8.7381426-.2897495-.4519906-14.0442067 2.4045243-14.122612 2.4166403-17.0268978 2.9166844c-.5856726.0965177-1.1532359-.3012586-1.2559241-.8859098z" fill="#9aafb7"/><path d="m105.395349 64.6543034v-50.5376478-.5268594c0-.6116771-.199826-.6176618-.642004-1.0477343l-12.4224672-11.84556731c-.5875059-.55719567-.6843226-.69649459-1.0296835-.69649459h-.8480233-12.6043338c15.4025215 20.6147954 16.2806839 57.7745877 4.8515682 80.9691991-.5270212 1.0780705-1.078195 2.1136289-1.6535214 3.1188512h3.6098789 3.8460372 15.7598559c.623838 0 1.132693-.5146837 1.132693-1.1385365z" fill="#d7e7ec"/><path d="m91.0464869 10.9217379c0 2.4432817 2.213703 2.2902004 3.2799498 2.2902004h11.0689123v-.1707368c0-.3179998-.134026-.3709663-.61751-.8478657l-11.948516-11.51620691c-.565091-.54170311-.6582138-.67712889-.9903983-.67712889h-.8156689z" fill="#fff"/><path d="m104.777839 12.193521-11.948516-11.51638183c-.565091-.54171133-.6582138-.67713917-.9903983-.67713917h-.8156689l.0232311 10.9217031c0 2.4433188 2.213703 2.2902352 3.2799498 2.2902352h11.0689123v-.1707394c0-.317804-.134026-.3707713-.61751-.8476779z" fill="#b5c4cf"/><g fill="#9aafb7" fill-rule="nonzero"><path d="m95.4064961 25.2264151h-45.8943875c-.8864998 0-1.6051319-.806641-1.6051319-1.8018868s.7186321-1.8018868 1.6051319-1.8018868h45.8943875c.8864998 0 1.6051318.806641 1.6051318 1.8018868s-.7184243 1.8018868-1.6051318 1.8018868z"/><path d="m95.4064961 36.0377358h-45.8943875c-.8864998 0-1.6051319-.806641-1.6051319-1.8018867 0-.9952458.7186321-1.8018868 1.6051319-1.8018868h45.8943875c.8864998 0 1.6051318.806641 1.6051318 1.8018868 0 .9952457-.7184243 1.8018867-1.6051318 1.8018867z"/><path d="m95.4064961 48.0503145h-45.8943875c-.8864998 0-1.6051319-.806641-1.6051319-1.8018868s.7186321-1.8018868 1.6051319-1.8018868h45.8943875c.8864998 0 1.6051318.806641 1.6051318 1.8018868s-.7184243 1.8018868-1.6051318 1.8018868z"/><path d="m95.4064961 58.8616352h-45.8943875c-.8864998 0-1.6051319-.806641-1.6051319-1.8018868s.7186321-1.8018868 1.6051319-1.8018868h45.8943875c.8864998 0 1.6051318.806641 1.6051318 1.8018868s-.7184243 1.8018868-1.6051318 1.8018868z"/><path d="m95.4064961 69.672956h-45.8943875c-.8864998 0-1.6051319-.806641-1.6051319-1.8018868s.7186321-1.8018868 1.6051319-1.8018868h45.8943875c.8864998 0 1.6051318.806641 1.6051318 1.8018868s-.7184243 1.8018868-1.6051318 1.8018868z"/></g></g><g fill-rule="nonzero" transform="translate(92.22093 38.440252)"><path d="m29.6258184 43.245283c-.5321816 0-1.0643633-.2036914-1.4702575-.6109351-.8120657-.8143485-.8120657-2.1349362 0-2.9494237l20.9924106-21.0552949c.811927-.8143485 2.128588-.8143485 2.9406537 0 .8120656.8143485.8120656 2.1349361 0 2.9494236l-20.9925493 21.055295c-.4058942.4072437-.9380758.6109351-1.4702575.6109351z" fill="#ffb454"/><path d="m28.7442875 42.6490034c.396295.3974745.9157134.5962796 1.4349965.5962796s1.0388368-.1988051 1.4349964-.5962796l20.4889515-20.5502067c.79259-.7948133.79259-2.0837219 0-2.8786709l-23.3589444 23.4288776c-.0001353 0-.0001353 0 0 0z" fill="#ff8659"/><path d="m53.5380235 31.2327044c-.1066099 0-.2140411-.008373-.3214722-.0253935-.7717249-.1227125-1.4072792-.674095-1.6391114-1.4224489l-2.5160778-8.1185144-8.0945582-2.5235668c-.7461331-.2326596-1.2958793-.8699683-1.4182276-1.6441275-.1222115-.7741592.2043244-1.5506519.8422052-2.0032056l6.9207535-4.9089106-.1083891-8.50120158c-.0099904-.78363031.424524-1.50508081 1.120705-1.86086462.6963179-.35605833 1.5335963-.2841329 2.1597076.1844805l6.7933416 5.08460633 8.0274993-2.73028385c.7401114-.25201353 1.558367-.06025814 2.1108504.49400692.5526201.55412779.7435328 1.37495617.4925408 2.11713328l-2.7223181 8.05139302 5.0696538 6.813562c.4673596.6281121.538661 1.4678827.183933 2.1661359-.354728.6983904-1.0740374 1.1354335-1.8553422 1.1240407l-8.4759729-.1085744-4.8943427 6.9412158c-.3881205.5512453-1.0160109.8705173-1.675378.8705173z" fill="#ffdd54"/><path d="m1.20442889 69.6661813c-1.60590519-1.6107101-1.60590519-4.2221336 0-5.8327061l24.71525921-24.7892074c.8029526-.805355 2.1047008-.805355 2.9076534 0l2.9076534 2.9163531c.8029526.805355.8029526 2.1109981 0 2.9163531l-24.71525927 24.7892073c-1.60590519 1.6107101-4.20940154 1.6107101-5.81530674 0z" fill="#6b61b1"/><g fill="#ffb454" transform="translate(45.511628 31.232704)"><path d="m23.0552326 13.2525867h-2.0959303v-2.0925137c0-1.1556255-.9384178-2.09251366-2.0959302-2.09251366s-2.0959302.93688816-2.0959302 2.09251366v2.0925137h-2.0959303c-1.1575124 0-2.0959302.9368882-2.0959302 2.0925137 0 1.1556256.9384178 2.0925137 2.0959302 2.0925137h2.0959303v2.0925137c0 1.1556256.9384178 2.0925137 2.0959302 2.0925137s2.0959302-.9368881 2.0959302-2.0925137v-2.0925137h2.0959303c1.1575124 0 2.0959302-.9368881 2.0959302-2.0925137 0-1.1556255-.9384178-2.0925137-2.0959302-2.0925137z"/><ellipse cx="2.09593" cy="13.252587" rx="2.09593" ry="2.092514"/><ellipse cx="18.863372" cy="2.092514" rx="2.09593" ry="2.092514"/></g><g fill="#ffdd54" transform="translate(17.965116)"><path d="m11.0331219 23.0850424h-2.06871034v-2.0369155c0-1.1249206-.92623059-2.0369155-2.06871036-2.0369155-1.14247978 0-2.06871036.9119949-2.06871036 2.0369155v2.0369155h-2.06871036c-1.14247978 0-2.06871036.911995-2.06871036 2.0369155s.92623058 2.0369155 2.06871036 2.0369155h2.06871036v2.0369155c0 1.1249205.92623058 2.0369155 2.06871036 2.0369155 1.14247977 0 2.06871036-.911995 2.06871036-2.0369155v-2.0369155h2.06871034c1.1424798 0 2.0687104-.911995 2.0687104-2.0369155s-.9262306-2.0369155-2.0687104-2.0369155z"/><path d="m20.6871036 4.07383101h-2.0687104v-2.03691551c0-1.12492053-.9262306-2.0369155-2.0687103-2.0369155-1.1424798 0-2.0687104.91199497-2.0687104 2.0369155v2.03691551h-2.0687103c-1.1424798 0-2.0687104.91199497-2.0687104 2.0369155 0 1.12492054.9262306 2.03691551 2.0687104 2.03691551h2.0687103v2.03691548c0 1.1249206.9262306 2.0369155 2.0687104 2.0369155 1.1424797 0 2.0687103-.9119949 2.0687103-2.0369155v-2.03691548h2.0687104c1.1424798 0 2.0687104-.91199497 2.0687104-2.03691551 0-1.12492053-.9262306-2.0369155-2.0687104-2.0369155z"/><ellipse cx="2.06871" cy="12.221493" rx="2.06871" ry="2.036916"/></g><g transform="translate(1.197674 3.603774)"><path d="m47.6153798 18.5501334 2.5289429 8.1365592c.2330176.7500173.8718216 1.302763 1.6474925 1.4256106.1079804.0170584.2159608.02545.3231159.02545.662876 0 1.2939769-.3199817 1.6843571-.8720395l4.9193683-6.956644 8.5193119.1088158c.7851621.0114181 1.5081495-.426734 1.8648288-1.1265391.3565418-.6998052.2848758-1.5414423-.1848735-2.1709506l-5.0955757-6.8287063 2.7362378-8.06928876c.2521377-.74382673.0602489-1.56647956-.4950593-2.121839z" fill="#ffb454"/><path d="m.10825554 66.0616358c1.6115907 1.6117393 4.22444195 1.6117393 5.83589509 0l24.80276047-24.8050462c.8057954-.8058696.8057954-2.1123469 0-2.9182165l-1.4590425-1.459177z" fill="#453d81"/></g></g></g></svg>
