<?xml version="1.0" encoding="UTF-8"?>
<svg height="191" viewBox="0 0 206 191" width="206" xmlns="http://www.w3.org/2000/svg"><g fill="none" fill-rule="evenodd"><path d="m148.201405 174.37856c-51.100633 29.724329-112.7632387 18.505525-137.7272852-25.057901-24.9640464-43.563426-3.77615699-102.9748895 47.3244756-132.6992187 51.1006326-29.7243293 112.7632386-18.50552504 137.7272846 25.0579006 24.964047 43.5634256 3.776157 102.9748901-47.324475 132.6992191z" fill="#00cef4"/><g fill-rule="nonzero"><g fill="#eaf6ff" transform="translate(52.697675 86.490566)"><path d="m97.227472 12.6453412h-92.65261837c-2.45010217 0-4.44358221-2.011206-4.44358221-4.48309434v-5.71858805c0-1.28054089 1.02873929-2.31872799 2.29829168-2.31872799 1.2695524 0 2.29829169 1.0381871 2.29829169 2.31872799v5.5639261h92.34631831v-5.40956447c0-1.28054088 1.0287393-2.31872799 2.2982917-2.31872799 1.2695522 0 2.2982912 1.03818711 2.2982912 2.31872799v5.5639261c.000298 2.47248896-1.9931819 4.48339466-4.443284 4.48339466z"/><path d="m2.42986077 29.8032075c-1.26955239 0-2.29829168-1.0381871-2.29829168-2.3187279v-5.7185881c0-2.4718884 1.99348004-4.4830943 4.44358221-4.4830943h92.6526183c2.4501022 0 4.4435824 2.0112059 4.4435824 4.4830943v5.5639261c0 1.2805409-1.028739 2.318728-2.2982919 2.318728-1.2695523 0-2.2982916-1.0381871-2.2982916-2.318728v-5.4095645h-92.34661605v5.5639261c0 1.2811416-1.02903695 2.3190283-2.29829168 2.3190283z"/></g><g transform="translate(124.55814 25.226415)"><ellipse cx="27.646092" cy="27.626257" fill="#eaf6ff" rx="27.396553" ry="27.626257"/><path d="m27.6457969 0c-1.5502646 0-3.0695947.13190586-4.5494463.3814575 12.9651266 2.1853593 22.8471062 13.5506537 22.8471062 27.2447996 0 13.6941458-9.8819796 25.0594402-22.8471062 27.2447995 1.4798516.2495516 2.9994763.3814575 4.5494463.3814575 15.1305476 0 27.3965526-12.3685514 27.3965526-27.626257 0-15.2577057-12.2657104-27.6262571-27.3965526-27.6262571z" fill="#d8ecfe"/><path d="m27.6460915 32.1764152c-9.3422447 0-17.0128434 7.2031296-17.85603181 16.401484 4.79544991 4.159788 11.03421921 6.6746149 17.85603181 6.6746149s13.0605819-2.5148269 17.8560319-6.6746149c-.8434831-9.1986515-8.5140817-16.401484-17.8560319-16.401484z" fill="#f09ba6"/><path d="m23.1093136 54.8686799c1.4763163.2483633 2.9903433.3838342 4.5364833.3838342 6.8218126 0 13.0605819-2.5148269 17.8560319-6.6746149-.2695729-2.9393618-1.2388565-5.6731405-2.7343228-8.0349685-3.9172023 7.4526813-11.1170061 12.8816177-19.6581924 14.3257492z" fill="#e1838e"/><path d="m27.6460915 35.9844543c-5.2258826 0-9.4621531-4.2717893-9.4621531-9.5414879v-3.6392947c0-5.2696986 4.2362705-9.5414878 9.4621531-9.5414878s9.4621531 4.2717892 9.4621531 9.5414878v3.6392947c-.0002946 5.2696986-4.2365651 9.5414879-9.4621531 9.5414879z" fill="#c99c8e"/><path d="m27.6457969 13.262481c-1.6492553 0-3.1995199.4263173-4.5494463 1.1743781 2.9278848 1.6220856 4.9124121 4.7604945 4.9124121 8.3668126v3.6392947c0 3.6063182-1.9848219 6.744727-4.9124121 8.3668127 1.350221.7480607 2.900191 1.1743781 4.5494463 1.1743781 5.2258826 0 9.4621531-4.2717892 9.4621531-9.5414879v-3.6392946c0-5.2691045-4.2362705-9.5408937-9.4621531-9.5408937z" fill="#a9796b"/></g><g transform="translate(124.55814 122.528302)"><ellipse cx="27.646092" cy="27.631605" fill="#eaf6ff" rx="27.396553" ry="27.626257"/><path d="m27.6457969.00534754c-1.5502646 0-3.0695947.13190586-4.5494463.38145749 12.9651266 2.1853593 22.8471062 13.55065367 22.8471062 27.24479957s-9.8819796 25.0594402-22.8471062 27.2447995c1.4798516.2495517 2.9994763.3814575 4.5494463.3814575 15.1305476 0 27.3965526-12.3685513 27.3965526-27.626257s-12.2657104-27.62625706-27.3965526-27.62625706z" fill="#d8ecfe"/><path d="m27.6460915 32.1817627c-9.3422447 0-17.0128434 7.2031296-17.85603181 16.401484 4.79515531 4.1597881 11.03421921 6.6746149 17.85603181 6.6746149s13.0605819-2.5148268 17.8560319-6.6746149c-.8434831-9.1983544-8.5140817-16.401484-17.8560319-16.401484z" fill="#b3dafe"/><path d="m23.1093136 54.8740275c1.4763163.2483632 2.9903433.3838341 4.5364833.3838341 6.8218126 0 13.0605819-2.5148268 17.8560319-6.6746149-.2695729-2.9393617-1.2388565-5.6731405-2.7343228-8.0349684-3.9172023 7.4526813-11.1170061 12.8816176-19.6581924 14.3257492z" fill="#8ac9fe"/><path d="m27.6460915 35.9898018c-5.2258826 0-9.4621531-4.2717892-9.4621531-9.5414879v-3.6392946c0-5.2696987 4.2362705-9.5414879 9.4621531-9.5414879s9.4621531 4.2717892 9.4621531 9.5414879v3.6392946c-.0002946 5.2696987-4.2365651 9.5414879-9.4621531 9.5414879z" fill="#e5bfb4"/><path d="m27.6457969 13.2678285c-1.6492553 0-3.1995199.4263174-4.5494463 1.1743781 2.9278848 1.6220856 4.9124121 4.7604945 4.9124121 8.3668127v3.6392946c0 3.6063182-1.9848219 6.7447271-4.9124121 8.3668127 1.350221.7480607 2.900191 1.1743781 4.5494463 1.1743781 5.2258826 0 9.4621531-4.2717892 9.4621531-9.5414879v-3.6392946c0-5.2691045-4.2362705-9.5408937-9.4621531-9.5408937z" fill="#ceaaa0"/></g><g transform="translate(27.546512 124.226415)"><ellipse cx="27.446932" cy="27.626257" fill="#eaf6ff" rx="27.396553" ry="27.626257"/><path d="m27.4469317 0c-1.54997 0-3.0695947.13190586-4.5494463.3814575 12.9651266 2.1853593 22.8471062 13.5506537 22.8471062 27.2447996 0 13.6941458-9.8819796 25.0594402-22.8471062 27.2447995 1.4798516.2495516 2.9994763.3814575 4.5494463.3814575 15.1305476 0 27.3965526-12.3685514 27.3965526-27.626257 0-15.2577057-12.2657104-27.6262571-27.3965526-27.6262571z" fill="#d8ecfe"/><path d="m27.4472263 32.1764152c-9.3422447 0-17.0128434 7.2031296-17.8560318 16.401484 4.7954499 4.159788 11.0342193 6.6746149 17.8560318 6.6746149 6.8218126 0 13.0605819-2.5148269 17.8560319-6.6746149-.843483-9.1986515-8.5140817-16.401484-17.8560319-16.401484z" fill="#fddf80"/><path d="m22.9104485 54.8686799c1.4763162.2483633 2.9903432.3838342 4.5364832.3838342 6.8218126 0 13.0605819-2.5148269 17.8560319-6.6746149-.2695729-2.9393618-1.2388565-5.6731405-2.7343228-8.0349685-3.9172023 7.4526813-11.1170061 12.8816177-19.6581923 14.3257492z" fill="#f9d070"/><path d="m27.4469317 35.9844543c-5.2258826 0-9.4621531-4.2717893-9.4621531-9.5414879v-3.6392947c0-5.2696986 4.2362705-9.5414878 9.4621531-9.5414878s9.4621531 4.2717892 9.4621531 9.5414878v3.6392947c0 5.2696986-4.2362705 9.5414879-9.4621531 9.5414879z" fill="#ffcebf"/><path d="m27.4469317 13.262481c-1.6492553 0-3.1995199.4263173-4.5494463 1.1743781 2.9278848 1.6220856 4.9124121 4.7604945 4.9124121 8.3668126v3.6392947c0 3.6063182-1.9848219 6.744727-4.9124121 8.3668127 1.350221.7480607 2.900191 1.1743781 4.5494463 1.1743781 5.2258826 0 9.4621531-4.2717892 9.4621531-9.5414879v-3.6392946c0-5.2691045-4.2362705-9.5408937-9.4621531-9.5408937z" fill="#ffb09e"/></g><g transform="translate(28.546512 25.226415)"><ellipse cx="27.446932" cy="27.631605" fill="#eaf6ff" rx="27.396553" ry="27.626257"/><path d="m27.4469317.00534754c-1.5502646 0-3.0695947.13190586-4.5494463.38145749 12.9651266 2.1853593 22.8471062 13.55065367 22.8471062 27.24479957s-9.8819796 25.0594402-22.8471062 27.2447995c1.4798516.2495517 2.9994763.3814575 4.5494463.3814575 15.1305476 0 27.3965526-12.3685513 27.3965526-27.626257s-12.2657104-27.62625706-27.3965526-27.62625706z" fill="#d8ecfe"/><path d="m27.4472263 32.1817627c-9.3422447 0-17.0128434 7.2031296-17.8560318 16.401484 4.7951553 4.1597881 11.0342193 6.6746149 17.8557372 6.6746149 6.821518 0 13.0605819-2.5148268 17.8560319-6.6746149-.8431884-9.1983544-8.5137871-16.401484-17.8557373-16.401484z" fill="#aee49e"/><path d="m22.9104485 54.8740275c1.4763162.2483632 2.9903432.3838341 4.5364832.3838341 6.8218126 0 13.0605819-2.5148268 17.8560319-6.6746149-.2695729-2.9393617-1.2388565-5.6731405-2.7343228-8.0349684-3.9172023 7.4526813-11.1170061 12.8816176-19.6581923 14.3257492z" fill="#8bd8a5"/><path d="m27.4469317 35.9898018c-5.2258826 0-9.4621531-4.2717892-9.4621531-9.5414879v-3.6392946c0-5.2696987 4.2362705-9.5414879 9.4621531-9.5414879s9.4621531 4.2717892 9.4621531 9.5414879v3.6392946c0 5.2696987-4.2362705 9.5414879-9.4621531 9.5414879z" fill="#ffdcbf"/><path d="m27.4469317 13.2678285c-1.6492553 0-3.1995199.4263174-4.5494463 1.1743781 2.9278848 1.6220856 4.9124121 4.7604945 4.9124121 8.3668127v3.6392946c0 3.6063182-1.9848219 6.7447271-4.9124121 8.3668127 1.350221.7480607 2.900191 1.1743781 4.5494463 1.1743781 5.2258826 0 9.4621531-4.2717892 9.4621531-9.5414879v-3.6392946c0-5.2691045-4.2362705-9.5408937-9.4621531-9.5408937z" fill="#edcbae"/></g><g transform="translate(80.244186 78.081761)"><ellipse cx="23.953488" cy="23.973503" fill="#b3dafe" rx="23.889413" ry="23.96089"/><path d="m23.9534884.01291352c-1.5824274 0-3.1274274.15826573-4.6236221.4525739 10.980279 2.16046227 19.2654913 11.86212108 19.2654913 23.50801568 0 11.6458947-8.2852123 21.3475535-19.2654913 23.5080158 1.4961947.2943081 3.0414942.4525739 4.6236221.4525739 13.1935814 0 23.8894128-10.7275331 23.8894128-23.96089s-10.6958314-23.96028928-23.8894128-23.96028928z" fill="#8ac9fe"/><path d="m32.7324419 21.6547752h-6.4671425v-6.4864922c0-1.2805409-1.0347907-2.318728-2.311811-2.318728-1.2770204 0-2.3118111 1.0381871-2.3118111 2.318728v6.4864922h-6.4671424c-1.2770204 0-2.3118111 1.0381871-2.3118111 2.3187279 0 1.2805409 1.0347907 2.318728 2.3118111 2.318728h6.4671424v6.4864922c0 1.2805409 1.0347907 2.318728 2.3118111 2.318728 1.2770203 0 2.311811-1.0381871 2.311811-2.318728v-6.4861919h6.4671425c1.2770203 0 2.311811-1.0381871 2.311811-2.3187279.0002994-1.2808412-1.0347907-2.3190283-2.311811-2.3190283z" fill="#fff"/></g></g></g></svg>
