<?xml version="1.0" encoding="UTF-8"?>
<svg height="191" viewBox="0 0 206 191" width="206" xmlns="http://www.w3.org/2000/svg"><g fill="none" fill-rule="evenodd"><path d="m148.201405 174.37856c-51.100633 29.724329-112.7632387 18.505525-137.7272852-25.057901-24.9640464-43.563426-3.77615699-102.9748895 47.3244756-132.6992187 51.1006326-29.7243293 112.7632386-18.50552504 137.7272846 25.0579006 24.964047 43.5634256 3.776157 102.9748901-47.324475 132.6992191z" fill="#00cef4"/><g fill-rule="nonzero" transform="translate(57.488372 37.238994)"><path d="m86.2640345 100.90566h-63.5396969c-3.2898673 0-5.9568957-2.7106823-5.9568957-6.0543987v-88.79686224c0-3.34371637 2.6670284-6.05439906 5.9568957-6.05439906h63.5396969c3.2898673 0 5.9568957 2.71068269 5.9568957 6.05439906v88.79709084c-.0002249 3.3437164-2.6670284 6.0541701-5.9568957 6.0541701z" fill="#c7cfe2"/><path d="m86.6199541 61.2641509h-64.2515361c-1.1088322 0-2.0079529-.902942-2.0079529-2.0164868v-52.42614579c0-1.1135448.8991207-2.01648686 2.0079529-2.01648686h64.2515361c1.1088321 0 2.0079529.90294206 2.0079529 2.01648686v52.42614579c-.0002275 1.1135448-.8991208 2.0164868-2.0079529 2.0164868z" fill="#00c3ff"/><path d="m77.8800886 109.314465h-63.5394719c-3.2898674 0-5.95689577-2.710676-5.95689577-6.054385v-88.7968896c0-3.3437088 2.66702837-6.05438537 5.95689577-6.05438537h63.5396968c3.2898674 0 5.9568958 2.71067657 5.9568958 6.05438537v88.7968896c-.0002249 3.343709-2.6670284 6.054385-5.9571207 6.054385z" fill="#d5dced"/><path d="m78.2360057 68.4716981h-64.2513086c-1.1088322 0-2.0079529-.9029421-2.0079529-2.0164868v-52.4261458c0-1.1135448.8991207-2.0164869 2.0079529-2.0164869h64.251536c1.1088322 0 2.0079529.9029421 2.0079529 2.0164869v52.4261458c-.0002274 1.1135447-.8993481 2.0164868-2.0081803 2.0164868z" fill="#7df5a5"/><path d="m69.4965926 116.522013h-63.53969682c-3.28986737 0-5.95689578-2.710677-5.95689578-6.054386v-88.7968895c0-3.3437087 2.66702841-6.0543853 5.95689578-6.0543853h63.53969682c3.2898674 0 5.9568958 2.7106766 5.9568958 6.0543853v88.7968895c0 3.343709-2.6670284 6.054386-5.9568958 6.054386z" fill="#e4eaf8"/><path d="m69.8525122 76.8805031h-64.25153604c-1.10883217 0-2.0079529-.902942-2.0079529-2.0164868v-52.4261458c0-1.1135448.89912073-2.0164869 2.0079529-2.0164869h64.25153604c1.1088322 0 2.0079529.9029421 2.0079529 2.0164869v52.4261458c0 1.1137732-.8991207 2.0164868-2.0079529 2.0164868z" fill="#ffc850"/><g fill="#fff" transform="translate(9.581395 26.427673)"><path d="m23.4961377 4.83739941c-.7671554-2.77506407-3.295342-4.71352464-6.1512606-4.71352464h-1.8836246c-2.8559186 0-5.3841052 1.93846057-6.15126059 4.71554433l-9.02030618 32.7552261c-.36266339 1.3193112.40093216 2.6832801 1.70696534 3.0490697 1.3024733.3675849 2.66034732-.4023686 3.02301071-1.7216797l2.22848865-8.0924782h18.31027377l2.2284886 8.0924782c.3012554 1.0949003 1.2889012 1.8125661 2.3630969 1.8125661.2187104 0 .4392009-.028949.6599138-.0908864 1.3060332-.3657896 2.0696288-1.7293097 1.7069654-3.0490697zm-14.88410594 21.03941099 5.42793624-19.71045018c.1764368-.64226374.7615931-1.0899633 1.4212845-1.0899633h1.8836246c.6599139 0 1.2446252.44792397 1.4212845 1.08839242l5.4281587 19.71224546h-15.58228854z"/><path d="m54.2115017 35.8321227v-17.3839833c0-1.3675595-1.0991148-2.4761489-2.4549863-2.4761489-1.0726382 0-1.9592723.7035279-2.2939016 1.6700653-1.6081785-1.0459788-3.5113826-1.6700653-5.5625444-1.6700653-5.6849155 0-10.3114323 4.666174-10.3114323 10.400319v3.9619728c0 5.7339206 4.6262943 10.400319 10.3114323 10.400319 2.2918991 0 4.3904519-.783867 6.104537-2.0650283.7860674 1.2376256 2.1541761 2.0650283 3.7158536 2.0650283 1.3558716 0 2.4549864-1.1085894 2.4549864-2.4761489.0002225-1.1979049-.843693-2.1978795-1.9639447-2.4263297zm-10.3114323-.050268c-2.9787346 0-5.4012371-2.4433849-5.4012371-5.4477968v-3.9619728c0-3.0044119 2.4225025-5.4477968 5.4012371-5.4477968s5.4012371 2.4433849 5.4012371 5.4477968v3.9619728c0 3.0046363-2.4225025 5.4477968-5.4012371 5.4477968z"/></g><g fill="#7f8499" transform="translate(10.77907 86.490566)"><path d="m54.1225979 4.18546583h-52.09545185c-1.10742868 0-2.00376725-.9058834-2.00376725-2.02561769 0-1.1197343.89611159-2.0256177 2.00376725-2.0256177h52.09545185c1.1074287 0 2.0037673.9058834 2.0037673 2.0256177 0 1.11973429-.8961116 2.02561769-2.0037673 2.02561769z"/><path d="m34.0858333 20.389719h-32.05868725c-1.10742868 0-2.00376725-.9058834-2.00376725-2.0256177s.89611159-2.0256177 2.00376725-2.0256177h32.05868725c1.1074287 0 2.0037672.9058834 2.0037672 2.0256177s-.8961116 2.0256177-2.0037672 2.0256177z"/></g><g fill="#707487" transform="translate(10.77907 94.899371)"><path d="m14.0492956 3.5188004h-12.02214955c-1.10742868 0-2.00376725-.74882622-2.00376725-1.67442701 0-.92541113.89611159-1.67442701 2.00376725-1.67442701h12.02214955c1.1074287 0 2.0037673.74882621 2.0037673 1.67442701-.000227.92560079-.8963386 1.67442701-2.0037673 1.67442701z"/><path d="m54.1225979 3.5188004h-32.0586872c-1.1074287 0-2.0037673-.74882622-2.0037673-1.67442701 0-.92541113.8961116-1.67442701 2.0037673-1.67442701h32.0586872c1.1074287 0 2.0037673.74882621 2.0037673 1.67442701 0 .92560079-.8961116 1.67442701-2.0037673 1.67442701z"/></g></g></g></svg>
