<?xml version="1.0" encoding="UTF-8"?>
<svg height="191" viewBox="0 0 206 191" width="206" xmlns="http://www.w3.org/2000/svg"><g fill="none" fill-rule="evenodd"><path d="m148.201405 174.37856c-51.100633 29.724329-112.7632387 18.505525-137.7272852-25.057901-24.9640464-43.563426-3.77615699-102.9748895 47.3244756-132.6992187 51.1006326-29.7243293 112.7632386-18.50552504 137.7272846 25.0579006 24.964047 43.5634256 3.776157 102.9748901-47.324475 132.6992191z" fill="#00cef4"/><g fill-rule="nonzero" transform="translate(59.883721 19.220126)"><path d="m40.7209302 148.955975c-1.3228713 0-2.3953488-1.027988-2.3953488-2.295982v-21.835709c0-1.267994 1.0724775-2.295982 2.3953488-2.295982 1.3228714 0 2.3953489 1.027988 2.3953489 2.295982v21.835709c0 1.2683-1.0724775 2.295982-2.3953489 2.295982z" fill="#444b66"/><path d="m80.244186 102.106918v22.223327c0 4.97622-17.9637821 9.009378-40.122093 9.009378s-40.122093-4.033158-40.122093-9.009378v-22.223327z" fill="#6e6b87"/><path d="m70.6627907 102.106918v28.830189c5.9864734-1.604969 9.5813953-3.660208 9.5813953-5.900728v-22.929461z" fill="#625f78"/><ellipse cx="40.122093" cy="101.506289" fill="#57566b" rx="40.122093" ry="9.009434"/><path d="m40.452184 92.4968553c-1.5293588 0-3.0373587.0201143-4.5219514.0583022 19.8468462.5083949 35.2700506 4.3216482 35.2700506 8.9511315 0 4.629484-15.4232044 8.442737-35.2700506 8.951132 1.4843002.037897 2.9925926.058302 4.5219514.058302 21.9765961 0 39.792002-4.033635 39.792002-9.009142 0-4.9755072-17.8154059-9.0097257-39.792002-9.0097257z" fill="#4d4c5e"/><path d="m80.244186 64.8679245v22.2233265c0 4.9762201-17.9637821 9.0093779-40.122093 9.0093779s-40.122093-4.0331578-40.122093-9.0093779v-22.2233265z" fill="#6e6b87"/><path d="m70.6627907 63.6666667v28.8301886c5.9864734-1.604969 9.5813953-3.6602076 9.5813953-5.9007276v-22.929461z" fill="#625f78"/><ellipse cx="40.122093" cy="64.267296" fill="#57566b" rx="40.122093" ry="9.009434"/><path d="m40.452184 55.2578616c-1.5293588 0-3.0373587.0201143-4.5219514.0583022 19.8468462.5083949 35.2700506 4.3216482 35.2700506 8.9511318s-15.4232044 8.4427369-35.2700506 8.9511318c1.4843002.0378964 2.9925926.0583022 4.5219514.0583022 21.9765961 0 39.792002-4.0336355 39.792002-9.0091425s-17.8154059-9.0097255-39.792002-9.0097255z" fill="#4d4c5e"/><path d="m80.244186 27.6289308v22.2233265c0 4.9762201-17.9637821 9.0093779-40.122093 9.0093779s-40.122093-4.0331578-40.122093-9.0093779v-22.2233265z" fill="#6e6b87"/><path d="m70.6627907 27.6289308v28.8301887c5.9864734-1.604969 9.5813953-3.6602077 9.5813953-5.9007276v-22.9294611z" fill="#625f78"/><ellipse cx="40.122093" cy="28.22956" fill="#57566b" rx="40.122093" ry="9.009434"/><path d="m40.452184 19.2201258c-1.5293588 0-3.0373587.0201142-4.5219514.0583022 19.8468462.5083949 35.2700506 4.3216481 35.2700506 8.9511317 0 4.6294837-15.4232044 8.4427369-35.2700506 8.9511318 1.4843002.0378965 2.9925926.0583022 4.5219514.0583022 21.9765961 0 39.792002-4.0336355 39.792002-9.0091424 0-4.975507-17.8154059-9.0097255-39.792002-9.0097255z" fill="#4d4c5e"/><path d="m40.7209302 30.0314465c-1.3228713 0-2.3953488-1.0009714-2.3953488-2.2356419v-21.95638903c0-1.23467055 1.0724775-2.23564199 2.3953488-2.23564199 1.3228714 0 2.3953489 1.00097144 2.3953489 2.23564199v21.95638903c0 1.2346705-1.0724775 2.2356419-2.3953489 2.2356419z" fill="#444b66"/><g fill="#ec5569"><ellipse cx="40.727058" cy="146.13618" rx="5.73881" ry="6.12737"/><ellipse cx="40.727058" cy="6.12737" rx="5.73881" ry="6.12737"/></g><g fill="#fad87c"><ellipse cx="13.112985" cy="49.76972" rx="2.177231" ry="2.28755"/><ellipse cx="13.132712" cy="43.211444" rx="2.177231" ry="2.28755"/><ellipse cx="13.112985" cy="86.161489" rx="2.177231" ry="2.28755"/><ellipse cx="13.132712" cy="79.603213" rx="2.177231" ry="2.28755"/><ellipse cx="13.112985" cy="122.553257" rx="2.177231" ry="2.28755"/><ellipse cx="13.132712" cy="115.994982" rx="2.177231" ry="2.28755"/></g><path d="m106.484468 124.821938c-1.741639 1.74685-4.56526 1.74685-6.306899 0l-27.1194295-27.2005709 6.3068994-6.3257696 27.1194291 27.2005705c1.741639 1.74685 1.741639 4.578919 0 6.32577z" fill="#6e6b87"/><ellipse cx="56.290698" cy="74.477987" fill="#ec5569" rx="32.337209" ry="32.433962"/><path d="m56.8892428 98.5031447c-6.2380711 0-12.1028743-2.4992029-16.5140358-7.0370077s-6.8403233-10.5709851-6.8403233-16.9881496c0-6.4174649 2.4294539-12.4506452 6.8403233-16.98845s10.2756727-7.0367072 16.5140358-7.0367072c6.2380711 0 12.1028743 2.4989024 16.5143279 7.0367072 4.4111615 4.5381053 6.8406153 10.5712855 6.8406153 16.98845 0 6.4168641-2.4294538 12.4503448-6.8406153 16.9878491-4.4114536 4.5378049-10.2762568 7.0373082-16.5143279 7.0373082z" fill="#caeefc"/><path d="m73.4500199 57.4895374c-4.3810217-4.5378048-10.2057529-7.0367072-16.4012016-7.0367072-1.4767782 0-2.9312206.1463226-4.3511439.4239451 4.537953.8875505 8.7133106 3.1566031 12.0503479 6.6127621 4.3810217 4.5381053 6.793876 10.5712855 6.793876 16.98845 0 6.4168641-2.4128543 12.4503448-6.793876 16.9878491-3.3367472 3.4564595-7.5123949 5.7258126-12.0503479 6.6133631 1.4199233.2776224 2.8746557.4239451 4.3511439.4239451 6.1954487 0 12.0201799-2.4992029 16.4014917-7.0373082 4.3810217-4.5378048 6.793876-10.570985 6.793876-16.9878491-.00029-6.4171645-2.4131443-12.4506452-6.7941661-16.98845z" fill="#89ceea"/></g></g></svg>
