<?xml version="1.0" encoding="UTF-8"?>
<svg height="191" viewBox="0 0 206 191" width="206" xmlns="http://www.w3.org/2000/svg"><g fill="none" fill-rule="evenodd"><path d="m148.201405 174.37856c-51.100633 29.724329-112.7632387 18.505525-137.7272852-25.057901-24.9640464-43.563426-3.77615699-102.9748895 47.3244756-132.6992187 51.1006326-29.7243293 112.7632386-18.50552504 137.7272846 25.0579006 24.964047 43.5634256 3.776157 102.9748901-47.324475 132.6992191z" fill="#00cef4"/><g fill-rule="nonzero" transform="translate(47.906977 46.849057)"><path d="m98.5835756 84.0880503h-45.0625c-1.77675 0-3.21875-1.4368136-3.21875-3.2215552 0-1.7847415 0-62.652805 0-64.4311034 0-1.7782985 1.442-3.2215552 3.21875-3.2215552h45.0625c1.7767504 0 3.2187504 1.4432567 3.2187504 3.2215552v64.4311034c0 1.7847416-1.442 3.2215552-3.2187504 3.2215552z" fill="#eceff1"/><g fill="#1976d2" transform="translate(51.5 26.427673)"><path d="m35.1317829 6.32207597h-31.93798445c-1.76297674 0-3.19379845-1.40964673-3.19379845-3.1606429s1.43082171-3.16064291 3.19379845-3.16064291h31.93798445c1.7629768 0 3.1937985 1.41596802 3.1937985 3.16064291 0 1.74467488-1.4308217 3.1606429-3.1937985 3.1606429z"/><path d="m35.1317829 18.9646476h-31.93798445c-1.76297674 0-3.19379845-1.4096467-3.19379845-3.1606429s1.43082171-3.1606429 3.19379845-3.1606429h31.93798445c1.7629768 0 3.1937985 1.415968 3.1937985 3.1606429s-1.4308217 3.1606429-3.1937985 3.1606429z"/><path d="m35.1317829 31.6072192h-31.93798445c-1.76297674 0-3.19379845-1.4096467-3.19379845-3.1606429 0-1.7509961 1.43082171-3.1606429 3.19379845-3.1606429h31.93798445c1.7629768 0 3.1937985 1.415968 3.1937985 3.1606429s-1.4308217 3.1606429-3.1937985 3.1606429z"/><path d="m35.1317829 44.2497909h-31.93798445c-1.76297674 0-3.19379845-1.4096468-3.19379845-3.1606429 0-1.7509962 1.43082171-3.160643 3.19379845-3.160643h31.93798445c1.7629768 0 3.1937985 1.4159681 3.1937985 3.160643 0 1.7446748-1.4308217 3.1606429-3.1937985 3.1606429z"/></g><path d="m56.3322171.74486713c-.7281861-.61503314-1.7054884-.87129694-2.6253024-.68550568l-51.10077517 9.60989268c-1.50747286.28189019-2.60613953 1.60805537-2.60613953 3.14563817v70.4725464c0 1.5375828 1.09227907 2.863748 2.60613953 3.1456382l51.10077517 9.6098927c.1980155.0384395.3896434.0576593.5876589.0576593.7409613 0 1.4627597-.2562638 2.0376435-.7367584.7345736-.6086265 1.156155-1.5119565 1.156155-2.4665391v-89.69233175c0-.95458267-.4215814-1.85150599-1.156155-2.46013252z" fill="#1565c0"/><path d="m41.1812626 64.4586115c-.1619225 1.450245-1.2829248 2.6091744-2.7090889 2.786497-.1307836.0189988-.2553394.0253318-.386123.0253318-1.2829248 0-2.4537494-.8106173-2.9146059-2.0518751l-6.4270799-17.4282717-6.4270798 17.4282717c-.4982232 1.3552508-1.8060592 2.184867-3.2509066 2.0328762-1.4137085-.1519907-2.5471664-1.2665895-2.7464557-2.7041686l-3.1138952-22.1653165c-.2428839-1.7225617.9403963-3.3311304 2.6405832-3.5781153 1.7064146-.253318 3.2820456.956275 3.5249294 2.6851697l1.3887973 9.90473 5.0631937-13.7361633c.9092574-2.4698495 4.9199545-2.4698495 5.8354397 0l4.7704875 12.931879 1.6752757-15.338399c.1930615-1.7352277 1.7749203-2.9828183 3.4377404-2.7991629 1.7126424.2026544 2.9395171 1.7668924 2.7526834 3.50212z" fill="#fafafa"/></g></g></svg>
