<?xml version="1.0" encoding="UTF-8"?>
<svg height="191" viewBox="0 0 206 191" width="206" xmlns="http://www.w3.org/2000/svg"><g fill="none" fill-rule="evenodd"><path d="m148.201405 174.37856c-51.100633 29.724329-112.7632387 18.505525-137.7272852-25.057901-24.9640464-43.563426-3.77615699-102.9748895 47.3244756-132.6992187 51.1006326-29.7243293 112.7632386-18.50552504 137.7272846 25.0579006 24.964047 43.5634256 3.776157 102.9748901-47.324475 132.6992191z" fill="#00cef4"/><g fill-rule="nonzero" transform="translate(41.918605 43.245283)"><g fill="#6a9923" transform="translate(58.686047)"><path d="m3.99224806 70.6227491h-3.99224806c0-11.1438982 8.9368968-20.1777121 19.9612403-20.1777121h3.9922481c0 11.1438982-8.9368968 20.1777121-19.96124034 20.1777121z"/><path d="m3.99224806 42.3739521h-3.99224806c0-11.1438982 8.9368968-20.1777121 19.9612403-20.1777121h3.9922481c0 11.1438982-8.9368968 20.1777121-19.96124034 20.1777121z"/><path d="m0 14.1251552h3.99224806c7.71701554 0 13.97286824-6.32369503 13.97286824-14.12439854h-3.9922481c-7.71701549 0-13.9728682 6.32369498-13.9728682 14.12439854z"/></g><path d="m34.9072691 77.028544-.1248077-.0703713-14.3487881-15.6666654c-2.1291469-2.3177296-5.7672389-2.5004437-8.1260524-.4081537-.0104859.0092991-.0209718.0188495-.0314576.0281486v-29.3026158c.0734012-3.2961421-2.46674147-6.0833489-5.808671-6.3736306-3.38515184-.1786928-6.27669965 2.3730213-6.45854031 5.6993226-.00613808.1105835-.00895137.2216697-.00895137.3325045v38.0547968c-.00076726 2.7336742.70843689 5.4221098 2.0603493 7.811216l18.39992178 32.5477383v8.042436h28.6443795v-16.637789c-.0007673-9.9404511-5.4178798-19.1193839-14.1973821-24.056937z" fill="#f2bb80"/><g fill="#88b337" transform="translate(34.732558)"><path d="m24.3220036 91.0434598c-1.1193189 0-2.0268337-.9058749-2.0268337-2.0231712v-76.8805031c0-1.1172963.9075148-2.0231711 2.0268337-2.0231711s2.0268336.9058748 2.0268336 2.0231711v76.8805031c0 1.1172963-.9075147 2.0231712-2.0268336 2.0231712z"/><path d="m0 50.5800371h4.05366726c11.19394884 0 20.26833634 9.05799 20.26833634 20.2317113h-4.0536673c-11.19394878 0-20.2683363-9.05799-20.2683363-20.2317113z"/><path d="m0 22.2556412h4.05366726c11.19394884 0 20.26833634 9.05799 20.26833634 20.2317113h-4.0536673c-11.19394878 0-20.2683363-9.05799-20.2683363-20.2317113z"/><path d="m24.3220036 14.1629566h-4.0536673c-7.8357388 0-14.18783541-6.3406183-14.18783541-14.16219791h4.05366731c7.8357388 0 14.1878354 6.34061834 14.1878354 14.16219791z"/></g><path d="m27.9701261 88.8930816c-.55587.0002521-1.0858454-.239289-1.4599602-.6596206l-16.1641267-18.1788999c-2.70906458-3.0401547-2.60030742-7.7210399.2466149-10.6265473.7837422-.774096 2.0326-.7519069 2.7897077.0494211.7386116.7816604.7386116 2.0212226 0 2.802883-1.3551488 1.3842954-1.4064447 3.6132883-.1164022 5.0611251l16.1621538 18.1768827c.7334327.8240214.6744917 2.0998929-.1314458 2.8495305-.3630171.3376269-.8357779.5249732-1.3265415.5252254z" fill="#e8a16d"/><path d="m68.2674419 101.085481v16.637789h28.643475v-8.042436l18.3993411-32.5477383c1.351869-2.3891062 2.061051-5.0775418 2.060284-7.811216v-37.7129933c.073399-3.2961421-2.466664-6.0833489-5.808488-6.3736306-3.385045-.1786928-6.276501 2.3730213-6.458336 5.6993226-.006138.1105835-.008951.2216697-.008951.3325045v29.6444193c-2.342627-2.1093802-5.981883-1.9533067-8.1286091.349092-.0097183.0103043-.0191809.0206087-.0286435.0309131l-14.348335 15.6666654-.1248037.0703713c-8.7792251 4.9375531-14.1961666 14.1164859-14.1969338 24.056937z" fill="#f2bb80"/><path d="m89.4019669 88.8930816c.55587.0002521 1.0858454-.239289 1.4599602-.6596206l16.1641269-18.1788999c2.709064-3.0401547 2.600307-7.7210399-.246615-10.6265473-.783742-.774096-2.0326-.7519069-2.789708.0494211-.738611.7816604-.738611 2.0212226 0 2.802883 1.355149 1.3842954 1.406445 3.6132883.116402 5.0611251l-16.1621533 18.1768827c-.7334327.8240214-.6744918 2.0998929.1314457 2.8495305.3630171.3376269.8357779.5249732 1.3265415.5252254z" fill="#e8a16d"/></g></g></svg>
