<svg viewBox="0 0 74.5 68" width="218" xmlns="http://www.w3.org/2000/svg">
    <g fill="none" fill-rule="evenodd" transform="translate(-12 -13)">
        <ellipse cx="48.875" cy="47" fill="#008df4" rx="37.467103" ry="31.858579"
                 transform="matrix(.8660254 -.5 .5 .8660254 -16.951992 30.734306)"/>
        <g fill-rule="nonzero">
            <path
                d="m39.4166924 0c-16.942255 0-30.8776961 13.1192118-32.35438346 29.7915976 4.39782106-7.6348847 10.45204956-9.7336189 9.79030986-9.0356923-.3783713.3976019-.748383.7935524-1.1116758 1.1827399-.0666427.0721125-.1333636.1443037-.2000063.2180677-5.3201684 5.7341651-12.77337971 13.7143574-15.53518588 19.9132827-.09403131.2110436.97235715-.797946 2.66328788-3.1144072 1.69637436-2.3239186 4.44631055-5.465618 5.94896214-6.6408466 11.64036846-.3003247 22.20334136-5.6083337 27.75687646-15.9794841.1383638-.2600612.1316448-.5737546-.0183599-.8287829-.1516454-.2516468-.4233728-.4076678-.7166633-.4076678l-1.2891503-.5032936 3.7375872-2.6809032c.1750055-.1006588.3100098-.2633641.3750118-.4546157 1.1866782-3.4727256 1.7866972-7.04610992 1.7866972-10.62114568 0-.46303008-.3732931-.83884882-.8333076-.83884882z"
                fill="#fff" transform="translate(28.75 26.677156)"/>
        </g>
    </g>
</svg>
